<?xml version="1.0" standalone="no"?>
<!DOCTYPE svg PUBLIC "-//W3C//DTD SVG 20010904//EN"
 "http://www.w3.org/TR/2001/REC-SVG-20010904/DTD/svg10.dtd">
<svg version="1.0" xmlns="http://www.w3.org/2000/svg"
 width="649.000000pt" height="649.000000pt" viewBox="0 0 649.000000 649.000000"
 preserveAspectRatio="xMidYMid meet">
<metadata>
Created by potrace 1.14, written by Peter Selinger 2001-2017
</metadata>
<g transform="translate(0.000000,649.000000) scale(0.100000,-0.100000)"
fill="#000000" stroke="none">
<path d="M304 5005 c-102 -32 -170 -88 -211 -175 -26 -53 -30 -84 -39 -255 -3
-71 -7 -150 -9 -175 -2 -25 -6 -101 -10 -170 -3 -69 -8 -144 -10 -166 -25
-251 -25 -762 -1 -803 2 -3 7 -28 10 -56 4 -27 20 -100 36 -161 221 -836 940
-1458 1795 -1551 91 -10 1332 -10 1410 0 251 32 486 103 709 216 114 58 285
167 345 221 18 16 37 30 41 30 10 0 219 207 260 259 19 23 45 55 58 69 77 90
230 353 290 500 l21 52 53 1 c251 4 570 65 761 145 275 115 459 277 568 499
47 96 82 210 94 305 8 57 7 203 0 255 -28 197 -147 393 -306 503 -88 59 -250
130 -340 147 -13 3 -46 9 -74 15 -27 5 -72 13 -100 17 -65 10 -417 10 -521 0
-80 -7 -81 -7 -80 15 3 37 -24 120 -53 160 -30 43 -96 88 -155 105 -61 19
-4483 17 -4542 -2z m5296 -879 c124 -20 140 -24 195 -54 70 -38 87 -74 83
-177 -5 -100 -36 -171 -102 -237 -99 -98 -312 -175 -561 -203 -33 -4 -63 -9
-68 -12 -13 -8 -16 19 -21 197 -2 96 -7 207 -10 245 -15 189 -16 235 -9 235
29 2 128 13 131 14 9 9 295 3 362 -8z"/>
</g>
</svg>
